<svg version="1.2" xmlns="http://www.w3.org/2000/svg" fill="white" viewBox="480 1410 2070 180" width="2070" height="180"><style></style><path  d="m498 1555.2c3.2 3 18.6 15.8 43 15.8 26 0 44.6-17 44.6-37.8 0-24.4-19.8-35.4-43-44.8-16.6-6.8-25.4-13.8-25.4-25.2 0-7.4 5.8-18 22.6-18 11.6 0 25.6 9.2 27 10 2.8 1.8 5.4 0.6 7-2 1.6-2.4 3.4-5.2 5-7.6 2-3 0.4-5.8-1.2-6.8-2-1.4-17-11.8-37-11.8-31.8 0-43.8 21.4-43.8 37 0 23.2 16 33.8 36.4 42.4 19.8 8.2 30.2 15.8 30.2 27.8 0 10.2-8.8 18.6-22.6 18.6-15.4 0-30.8-12.8-32-13.8-2.2-1.8-5-1-6.8 1.6-1.8 2.6-3.4 5.6-5.2 8.2-2 3.4-0.6 4.8 1.2 6.4zm-5.3 0c3.2 3 18.6 15.8 43 15.8 26 0 44.6-17 44.6-37.8 0-24.4-19.8-35.4-43-44.8-16.6-6.8-25.4-13.8-25.4-25.2 0-7.4 5.8-18 22.6-18 11.6 0 25.6 9.2 27 10 2.8 1.8 5.4 0.6 7-2 1.6-2.4 3.4-5.2 5-7.6 2-3 0.4-5.8-1.2-6.8-2-1.4-17-11.8-37-11.8-31.8 0-43.8 21.4-43.8 37 0 23.2 16 33.8 36.4 42.4 19.8 8.2 30.2 15.8 30.2 27.8 0 10.2-8.8 18.6-22.6 18.6-15.4 0-30.8-12.8-32-13.8-2.2-1.8-5-1-6.8 1.6-1.8 2.6-3.4 5.6-5.2 8.2-2 3.4-0.6 4.8 1.2 6.4zm235.9 10c0 2 1.8 3.8 3.8 3.8h13.2c2.2 0 3.8-1.8 3.8-3.8v-57.8h73.2v57.8c0 2 1.6 3.8 3.8 3.8h13.2c2 0 3.8-1.8 3.8-3.8v-132.4c0-2-1.8-3.8-3.8-3.8h-13.2c-2.2 0-3.8 1.8-3.8 3.8v55.8h-73.2v-55.8c0-2-1.6-3.8-3.8-3.8h-13.2c-2 0-3.8 1.8-3.8 3.8zm-5.3 0c0 2 1.8 3.8 3.8 3.8h13.2c2.2 0 3.8-1.8 3.8-3.8v-57.8h73.2v57.8c0 2 1.6 3.8 3.8 3.8h13.2c2 0 3.8-1.8 3.8-3.8v-132.4c0-2-1.8-3.8-3.8-3.8h-13.2c-2.2 0-3.8 1.8-3.8 3.8v55.8h-73.2v-55.8c0-2-1.6-3.8-3.8-3.8h-13.2c-2 0-3.8 1.8-3.8 3.8zm272.5-48.4c0 30.4 22.8 54.2 54.2 54.2 31.6 0 54.6-23.8 54.6-54.2v-84c0-2-1.8-3.8-3.8-3.8h-13.4c-2.2 0-3.8 1.8-3.8 3.8v83c0 19.8-13 35.2-33.6 35.2-20.4 0-33.2-15.6-33.2-35.6v-82.6c0-2-1.6-3.8-3.8-3.8h-13.4c-2 0-3.8 1.8-3.8 3.8zm-5.3 0c0 30.4 22.8 54.2 54.2 54.2 31.6 0 54.6-23.8 54.6-54.2v-84c0-2-1.8-3.8-3.8-3.8h-13.4c-2.2 0-3.8 1.8-3.8 3.8v83c0 19.8-13 35.2-33.6 35.2-20.4 0-33.2-15.6-33.2-35.6v-82.6c0-2-1.6-3.8-3.8-3.8h-13.4c-2 0-3.8 1.8-3.8 3.8zm266.5 48.4c0 2 1.6 3.8 3.8 3.8h13c2 0 3.8-1.8 3.8-3.8v-51h30.2l26.6 53c0.4 0.8 1.6 1.8 3.2 1.8h15.6c3.4 0 4.8-3.2 3.4-5.8l-27.4-50.8c17.4-7 29.6-22.2 29.6-40.6 0-23.8-19.6-42.8-43.6-42.8h-54.4c-2.2 0-3.8 1.8-3.8 3.8zm21-68.2v-48.6h35.6c13 0 24.4 10.8 24.4 23.8 0 13.8-11.4 24.8-24.4 24.8zm-26.3 68.2c0 2 1.6 3.8 3.8 3.8h13c2 0 3.8-1.8 3.8-3.8v-51h30.2l26.6 53c0.4 0.8 1.6 1.8 3.2 1.8h15.6c3.4 0 4.8-3.2 3.4-5.8l-27.4-50.8c17.4-7 29.6-22.2 29.6-40.6 0-23.8-19.6-42.8-43.6-42.8h-54.4c-2.2 0-3.8 1.8-3.8 3.8zm21-68.2v-48.6h35.6c13 0 24.4 10.8 24.4 23.8 0 13.8-11.4 24.8-24.4 24.8zm217.3 72h12.6c2.4 0 4-1.6 4.6-3 4-9.2 8.2-18.2 12.2-27.4h65.4l12.4 27.4c0.8 1.8 2.2 3 4.6 3h12.6c3 0 4.6-2.6 3.4-5.2l-61-134.6c-0.6-1.2-2.4-2.2-3.4-2.2h-2c-1 0-2.8 1-3.4 2.2l-61.4 134.6c-1.2 2.6 0.4 5.2 3.4 5.2zm37.2-47.6l24.4-54.8h1l24.6 54.8zm-42.5 47.6h12.6c2.4 0 4-1.6 4.6-3 4-9.2 8.2-18.2 12.2-27.4h65.4l12.4 27.4c0.8 1.8 2.2 3 4.6 3h12.6c3 0 4.6-2.6 3.4-5.2l-61-134.6c-0.6-1.2-2.4-2.2-3.4-2.2h-2c-1 0-2.8 1-3.4 2.2l-61.4 134.6c-1.2 2.6 0.4 5.2 3.4 5.2zm37.2-47.6l24.4-54.8h1l24.6 54.8zm223.5 33.8c3.2 3 18.6 15.8 43 15.8 26 0 44.6-17 44.6-37.8 0-24.4-19.8-35.4-43-44.8-16.6-6.8-25.4-13.8-25.4-25.2 0-7.4 5.8-18 22.6-18 11.6 0 25.6 9.2 27 10 2.8 1.8 5.4 0.6 7-2 1.6-2.4 3.4-5.2 5-7.6 2-3 0.4-5.8-1.2-6.8-2-1.4-17-11.8-37-11.8-31.8 0-43.8 21.4-43.8 37 0 23.2 16 33.8 36.4 42.4 19.8 8.2 30.2 15.8 30.2 27.8 0 10.2-8.8 18.6-22.6 18.6-15.4 0-30.8-12.8-32-13.8-2.2-1.8-5-1-6.8 1.6-1.8 2.6-3.4 5.6-5.2 8.2-2 3.4-0.6 4.8 1.2 6.4zm-5.3 0c3.2 3 18.6 15.8 43 15.8 26 0 44.6-17 44.6-37.8 0-24.4-19.8-35.4-43-44.8-16.6-6.8-25.4-13.8-25.4-25.2 0-7.4 5.8-18 22.6-18 11.6 0 25.6 9.2 27 10 2.8 1.8 5.4 0.6 7-2 1.6-2.4 3.4-5.2 5-7.6 2-3 0.4-5.8-1.2-6.8-2-1.4-17-11.8-37-11.8-31.8 0-43.8 21.4-43.8 37 0 23.2 16 33.8 36.4 42.4 19.8 8.2 30.2 15.8 30.2 27.8 0 10.2-8.8 18.6-22.6 18.6-15.4 0-30.8-12.8-32-13.8-2.2-1.8-5-1-6.8 1.6-1.8 2.6-3.4 5.6-5.2 8.2-2 3.4-0.6 4.8 1.2 6.4zm255.1 10c0 2 1.8 3.8 3.8 3.8h13.2c2 0 3.8-1.8 3.8-3.8v-117.4h32.6c2.2 0 3.8-1.8 3.8-3.8v-11.2c0-2-1.6-3.8-3.8-3.8h-86c-2.2 0-3.8 1.8-3.8 3.8v11.2c0 2 1.6 3.8 3.8 3.8h32.6zm-5.3 0c0 2 1.8 3.8 3.8 3.8h13.2c2 0 3.8-1.8 3.8-3.8v-117.4h32.6c2.2 0 3.8-1.8 3.8-3.8v-11.2c0-2-1.6-3.8-3.8-3.8h-86c-2.2 0-3.8 1.8-3.8 3.8v11.2c0 2 1.6 3.8 3.8 3.8h32.6zm199.5 0c0 2 1.6 3.8 3.8 3.8h13c2 0 3.8-1.8 3.8-3.8v-51h30.2l26.6 53c0.4 0.8 1.6 1.8 3.2 1.8h15.6c3.4 0 4.8-3.2 3.4-5.8l-27.4-50.8c17.4-7 29.6-22.2 29.6-40.6 0-23.8-19.6-42.8-43.6-42.8h-54.4c-2.2 0-3.8 1.8-3.8 3.8zm21-68.2v-48.6h35.6c13 0 24.4 10.8 24.4 23.8 0 13.8-11.4 24.8-24.4 24.8zm-26.3 68.2c0 2 1.6 3.8 3.8 3.8h13c2 0 3.8-1.8 3.8-3.8v-51h30.2l26.6 53c0.4 0.8 1.6 1.8 3.2 1.8h15.6c3.4 0 4.8-3.2 3.4-5.8l-27.4-50.8c17.4-7 29.6-22.2 29.6-40.6 0-23.8-19.6-42.8-43.6-42.8h-54.4c-2.2 0-3.8 1.8-3.8 3.8zm21-68.2v-48.6h35.6c13 0 24.4 10.8 24.4 23.8 0 13.8-11.4 24.8-24.4 24.8zm217.3 72h12.6c2.4 0 4-1.6 4.6-3 4-9.2 8.2-18.2 12.2-27.4h65.4l12.4 27.4c0.8 1.8 2.2 3 4.6 3h12.6c3 0 4.6-2.6 3.4-5.2l-61-134.6c-0.6-1.2-2.4-2.2-3.4-2.2h-2c-1 0-2.8 1-3.4 2.2l-61.4 134.6c-1.2 2.6 0.4 5.2 3.4 5.2zm37.2-47.6l24.4-54.8h1l24.6 54.8zm-42.5 47.6h12.6c2.4 0 4-1.6 4.6-3 4-9.2 8.2-18.2 12.2-27.4h65.4l12.4 27.4c0.8 1.8 2.2 3 4.6 3h12.6c3 0 4.6-2.6 3.4-5.2l-61-134.6c-0.6-1.2-2.4-2.2-3.4-2.2h-2c-1 0-2.8 1-3.4 2.2l-61.4 134.6c-1.2 2.6 0.4 5.2 3.4 5.2zm37.2-47.6l24.4-54.8h1l24.6 54.8z"/></svg>