<?xml version="1.0" encoding="UTF-8" standalone="no"?>
<!DOCTYPE svg PUBLIC "-//W3C//DTD SVG 1.1//EN" "http://www.w3.org/Graphics/SVG/1.1/DTD/svg11.dtd">
<svg version="1.1" xmlns="http://www.w3.org/2000/svg" xmlns:xlink="http://www.w3.org/1999/xlink" preserveAspectRatio="xMidYMid meet" viewBox="0 0 200 47" width="200" height="47"><defs><path d="M102.52 25.45C101.5 24.36 99.54 23.28 96.63 22.21C94.51 21.4 93.08 20.79 92.34 20.37C91.59 19.95 91.05 19.5 90.71 19.03C90.38 18.56 90.21 18 90.21 17.33C90.21 16.35 90.66 15.58 91.55 15.02C92.45 14.46 93.77 14.18 95.53 14.18C97.28 14.18 99.2 14.57 101.3 15.36C102.28 15.77 102.52 15.02 102.52 15.02C102.59 14.87 103.11 13.66 103.17 13.51C103.17 13.51 103.65 12.63 102.65 12.3C100.41 11.45 98.13 11.03 95.8 11.03C92.97 11.03 90.74 11.62 89.11 12.79C87.49 13.96 86.68 15.56 86.68 17.58C86.68 18.71 86.91 19.69 87.38 20.51C87.85 21.32 88.57 22.05 89.53 22.69C90.49 23.34 92.11 24.09 94.39 24.95C96.79 25.89 98.41 26.7 99.24 27.39C100.06 28.07 100.48 28.9 100.48 29.87C100.48 31.15 99.95 32.11 98.91 32.73C97.87 33.36 96.38 33.68 94.44 33.68C93.19 33.68 91.88 33.5 90.54 33.15C90.05 33.03 89.34 32.79 88.78 32.59C87.81 32.22 87.62 33.08 87.62 33.08C87.57 33.2 87.16 34.21 87.1 34.34C87.1 34.34 86.58 35.16 87.49 35.6C89.24 36.39 91.52 36.78 94.35 36.78C97.42 36.78 99.8 36.15 101.51 34.9C103.2 33.65 104.05 31.86 104.05 29.55C104.05 27.9 103.54 26.54 102.52 25.45" id="b1zUZXUwuG"></path><path d="M162.88 35.79C164.16 32.38 170.39 15.56 171.71 12.06C172.04 11.29 171.18 11.41 171.18 11.41C170.91 11.41 168.79 11.41 168.53 11.41C168.53 11.41 168.01 11.31 167.76 12.01C164.84 20.13 162.95 25.5 162.1 27.95C161.22 30.47 160.71 32.13 160.54 32.93C160.52 32.93 160.38 32.93 160.36 32.93C160.15 31.9 159.45 29.67 158.26 26.22C158.26 26.22 154.16 14.7 153.19 11.99C152.95 11.33 152.38 11.41 152.38 11.41C152.1 11.41 149.88 11.41 149.6 11.41C149.6 11.41 148.94 11.29 149.24 12.05C150.54 15.52 156.77 32.33 158.07 35.78C158.27 36.31 158.68 36.41 158.68 36.41C159.03 36.41 161.84 36.41 162.19 36.41C162.19 36.41 162.68 36.31 162.88 35.79" id="g3UZJtlGz5"></path><path d="M193.18 35.64C193.18 32.42 193.18 20.15 193.18 20.15C193.18 16.99 192.45 14.68 190.96 13.24C189.47 11.8 187.72 11.08 184.77 11.08C183.09 11.08 181.56 11.42 180.19 12.09C178.82 12.76 177.75 13.71 176.99 14.93C176.97 14.93 176.83 14.93 176.81 14.93C176.81 14.93 176.46 12.86 176.29 11.94C176.2 11.39 175.64 11.46 175.64 11.46C175.46 11.46 173.98 11.46 173.8 11.46C173.8 11.46 173.17 11.38 173.17 12.08C173.17 15.48 173.17 31.96 173.17 35.66C173.17 36.47 173.78 36.41 173.78 36.41C174.02 36.41 176 36.41 176.25 36.41C176.25 36.41 176.87 36.47 176.87 35.66C176.87 33.08 176.87 23.32 176.87 23.32C176.87 20.09 177.5 17.78 178.69 16.38C179.88 14.97 181.76 14.27 184.32 14.27C186.26 14.27 187.21 14.77 188.12 15.77C189.03 16.76 189.48 18.27 189.48 20.29C189.48 20.29 189.48 32.46 189.48 35.65C189.48 36.49 190.08 36.41 190.08 36.41C190.33 36.41 192.32 36.41 192.57 36.41C192.57 36.41 193.18 36.49 193.18 35.64" id="b2He2vPoc"></path><path d="M132.36 29.5C132.36 27.77 133.01 26.49 134.31 25.66C135.62 24.84 137.75 24.38 140.7 24.27C140.97 24.26 142.3 24.2 144.71 24.11C144.71 25.46 144.71 26.2 144.71 26.35C144.71 28.67 144.05 30.46 142.73 31.75C141.41 33.03 139.3 33.68 136.99 33.68C135.52 33.68 134.39 33.32 133.58 32.61C132.76 31.9 132.36 30.87 132.36 29.5ZM148.54 35.94C148.54 33.25 148.54 19.37 148.54 19.37C148.54 16.47 147.72 14.36 146.31 13.05C144.9 11.73 142.44 11.08 139.51 11.08C138.07 11.08 136.62 11.26 135.19 11.64C134 11.95 132.89 12.36 131.86 12.87C131.02 13.2 131.45 13.8 131.45 13.8C131.52 13.96 132.03 15.27 132.1 15.43C132.1 15.43 132.21 16.13 133.24 15.67C135.47 14.68 137.48 14.18 139.29 14.18C141.11 14.18 142.73 14.65 143.56 15.58C144.38 16.51 144.8 17.94 144.8 19.89C144.8 20 144.8 20.51 144.8 21.43C142.12 21.52 140.64 21.56 140.34 21.57C132.42 21.81 128.46 24.44 128.46 29.46C128.46 31.8 129.15 33.61 130.53 34.88C131.91 36.15 133.82 36.78 136.25 36.78C138.07 36.78 139.89 36.76 141.11 36.2C142.32 35.65 143.84 34.66 145.06 33.1C145.09 33.1 145.36 33.1 145.39 33.1C145.39 33.1 145.47 35.05 145.5 35.94C145.52 36.38 145.94 36.39 145.94 36.39C146.15 36.39 147.87 36.39 148.09 36.39C148.09 36.39 148.54 36.41 148.54 35.94" id="a1GRwq3fUH"></path><path d="M109.73 29.5C109.73 27.77 110.38 26.49 111.69 25.66C112.99 24.84 115.12 24.38 118.07 24.27C118.34 24.26 119.68 24.2 122.08 24.11C122.08 25.46 122.08 26.2 122.08 26.35C122.08 28.67 121.42 30.46 120.11 31.75C118.79 33.03 116.67 33.68 114.36 33.68C112.9 33.68 111.76 33.32 110.95 32.61C110.14 31.9 109.73 30.87 109.73 29.5ZM125.92 35.94C125.92 33.25 125.92 19.37 125.92 19.37C125.92 16.47 125.09 14.36 123.68 13.05C122.27 11.73 119.81 11.08 116.89 11.08C115.44 11.08 114 11.26 112.56 11.64C111.37 11.95 110.26 12.36 109.23 12.87C108.39 13.2 108.83 13.8 108.83 13.8C108.89 13.96 109.41 15.27 109.47 15.43C109.47 15.43 109.58 16.13 110.61 15.67C112.84 14.68 114.86 14.18 116.67 14.18C118.48 14.18 120.11 14.65 120.93 15.58C121.76 16.51 122.17 17.94 122.17 19.89C122.17 20 122.17 20.51 122.17 21.43C119.5 21.52 118.01 21.56 117.72 21.57C109.8 21.81 105.84 24.44 105.84 29.46C105.84 31.8 106.53 33.61 107.91 34.88C109.29 36.15 111.19 36.78 113.62 36.78C115.44 36.78 117.27 36.76 118.48 36.2C119.7 35.65 121.21 34.66 122.44 33.1C122.47 33.1 122.74 33.1 122.77 33.1C122.77 33.1 122.84 35.05 122.88 35.94C122.89 36.38 123.31 36.39 123.31 36.39C123.53 36.39 125.25 36.39 125.46 36.39C125.46 36.39 125.92 36.41 125.92 35.94" id="h2pMkGRvSQ"></path><path d="M80.59 9.44C79.74 7.1 77.89 5.25 75.55 4.4C73.4 3.72 71.41 3.72 67.42 3.72C66.21 3.72 56.59 3.72 55.39 3.72C51.4 3.72 49.4 3.72 47.26 4.4C44.91 5.25 43.06 7.1 42.21 9.44C42.08 9.85 41.98 10.26 41.89 10.67C42.76 11.9 43.51 13.23 44.12 14.62C44.18 13.1 44.32 11.89 44.67 10.79C45.41 8.74 46.56 7.6 48.6 6.85C50.47 6.26 52.68 6.26 56.16 6.26C57.21 6.26 65.6 6.26 66.65 6.26C70.13 6.26 72.33 6.26 74.2 6.85C76.25 7.6 77.39 8.74 78.14 10.79C78.73 12.66 78.73 14.86 78.73 18.34C78.73 19.39 78.73 27.78 78.73 28.83C78.73 32.31 78.73 34.51 78.14 36.39C77.39 38.43 76.25 39.58 74.2 40.32C72.33 40.91 70.13 40.91 66.65 40.91C65.6 40.91 57.21 40.91 56.16 40.91C52.68 40.91 50.47 40.91 48.6 40.32C46.56 39.58 45.41 38.43 44.67 36.39C44.32 35.29 44.18 34.07 44.12 32.55C43.51 33.94 42.76 35.27 41.89 36.5C41.98 36.91 42.08 37.32 42.21 37.73C43.06 40.08 44.91 41.92 47.26 42.78C49.4 43.45 51.4 43.45 55.39 43.45C56.59 43.45 66.21 43.45 67.42 43.45C71.41 43.45 73.4 43.45 75.55 42.78C77.89 41.92 79.74 40.08 80.59 37.73C81.27 35.58 81.27 33.59 81.27 29.6C81.27 28.4 81.27 18.77 81.27 17.57C81.27 13.58 81.27 11.59 80.59 9.44" id="a13PF00ZsD"></path><path d="M46.78 32.82C46.78 32.82 46.78 33.48 46.78 32.46C46.78 32.32 46.89 31.78 47.43 31.88C50.65 32.88 54.09 33.87 56.61 37.21C56.9 37.62 56.65 38.21 56.15 38.21C54.07 38.21 52.08 38.21 52.08 38.21C48.9 38.21 46.78 36.24 46.78 32.82ZM47.05 18.68C46.92 18.58 46.78 18.47 46.78 18.12C46.78 16.74 46.78 14.27 46.78 14.27C46.78 10.02 49.64 8.97 50.97 8.97C51.23 8.98 51.46 9.04 51.62 9.3C55.63 18.05 58.13 23.59 59.68 36.78C59.68 37.03 59.72 37.16 59.88 36.77C60.97 34.37 66.13 22.15 64.08 9.64C64.03 9.2 64.37 8.96 64.64 8.96C66.76 8.96 70.78 8.96 70.78 8.96C73.89 8.96 76.03 11.1 76.03 14.27C76.03 14.27 76.03 18.16 76.03 19.69C76.03 19.82 75.99 20.07 75.7 20.23C66.19 25.18 62.61 33.28 61.34 37.59C61.22 37.94 61.15 38.21 60.75 38.21C60.24 38.21 59.4 38.21 58.88 38.21C58.5 38.21 58.42 38.06 58.34 37.53C57.7 32.8 55.47 24.68 47.05 18.68ZM70.78 38.21C70.78 38.21 66.88 38.21 64.16 38.21C63.88 38.21 63.23 37.77 63.74 37.15C67.13 33.5 71.37 32.23 75.4 30.89C75.93 30.73 76.03 31.28 76.03 31.44C76.03 32.72 76.03 32.82 76.03 32.82C76.03 35.92 73.89 38.21 70.78 38.21" id="da7OHNZc9"></path><path d="M23.54 5.27C13.42 5.27 5.22 13.47 5.22 23.59C5.22 33.7 13.42 41.9 23.54 41.9C33.66 41.9 41.86 33.7 41.86 23.59C41.86 13.47 33.66 5.27 23.54 5.27" id="b1gVjMlUUk"></path><path d="M32.43 21.93C31.06 21.93 29.95 23.11 29.95 24.55C29.95 26 31.06 27.18 32.43 27.18C33.81 27.18 34.92 26 34.92 24.55C34.92 23.11 33.81 21.93 32.43 21.93" id="a2cWlyKy8k"></path><path d="M26.11 24.55C26.11 21.15 28.94 18.38 32.43 18.38C35.93 18.38 38.76 21.15 38.76 24.55C38.76 27.96 35.93 30.72 32.43 30.72C28.94 30.72 26.11 27.96 26.11 24.55ZM24.89 15.57C24.89 16.6 24.05 17.44 23.02 17.44C22.93 17.44 22.21 17.44 22.12 17.44C21.09 17.44 20.25 16.6 20.25 15.57C20.25 15.52 20.25 15.15 20.25 15.1C20.25 14.07 21.09 13.23 22.12 13.23C22.21 13.23 22.93 13.23 23.02 13.23C24.05 13.23 24.89 14.08 24.89 15.1C24.89 15.2 24.89 15.47 24.89 15.57ZM24.89 28.57C24.89 29.61 24.03 30.47 22.98 30.47C22.9 30.47 22.24 30.47 22.16 30.47C21.11 30.47 20.25 29.61 20.25 28.57C20.25 27.77 20.25 21.37 20.25 20.57C20.25 19.53 21.11 18.67 22.16 18.67C22.24 18.67 22.9 18.67 22.98 18.67C24.03 18.67 24.89 19.53 24.89 20.57C24.89 22.17 24.89 26.97 24.89 28.57ZM18.86 24.71C18.86 34.86 2.69 30.39 9.25 25.18C10.78 27.31 13.72 27.16 14.04 25.06C14.04 24.24 14.09 17.62 14.1 16.79C14.25 14.67 18.36 14.25 18.86 16.79C18.86 18.37 18.86 23.13 18.86 24.71ZM23.57 3.72C12.6 3.72 3.7 12.61 3.7 23.59C3.7 34.56 12.6 43.45 23.57 43.45C34.54 43.45 43.44 34.56 43.44 23.59C43.44 12.61 34.54 3.72 23.57 3.72" id="atUtnvRUS"></path></defs><g><g><g><use xlink:href="#b1zUZXUwuG" opacity="1" fill="#272830" fill-opacity="1"></use><g><use xlink:href="#b1zUZXUwuG" opacity="1" fill-opacity="0" stroke="#000000" stroke-width="1" stroke-opacity="0"></use></g></g><g><use xlink:href="#g3UZJtlGz5" opacity="1" fill="#272830" fill-opacity="1"></use><g><use xlink:href="#g3UZJtlGz5" opacity="1" fill-opacity="0" stroke="#000000" stroke-width="1" stroke-opacity="0"></use></g></g><g><use xlink:href="#b2He2vPoc" opacity="1" fill="#272830" fill-opacity="1"></use><g><use xlink:href="#b2He2vPoc" opacity="1" fill-opacity="0" stroke="#000000" stroke-width="1" stroke-opacity="0"></use></g></g><g><use xlink:href="#a1GRwq3fUH" opacity="1" fill="#272830" fill-opacity="1"></use><g><use xlink:href="#a1GRwq3fUH" opacity="1" fill-opacity="0" stroke="#000000" stroke-width="1" stroke-opacity="0"></use></g></g><g><use xlink:href="#h2pMkGRvSQ" opacity="1" fill="#272830" fill-opacity="1"></use><g><use xlink:href="#h2pMkGRvSQ" opacity="1" fill-opacity="0" stroke="#000000" stroke-width="1" stroke-opacity="0"></use></g></g><g><use xlink:href="#a13PF00ZsD" opacity="1" fill="#272830" fill-opacity="1"></use><g><use xlink:href="#a13PF00ZsD" opacity="1" fill-opacity="0" stroke="#000000" stroke-width="1" stroke-opacity="0"></use></g></g><g><use xlink:href="#da7OHNZc9" opacity="1" fill="#272830" fill-opacity="1"></use><g><use xlink:href="#da7OHNZc9" opacity="1" fill-opacity="0" stroke="#000000" stroke-width="1" stroke-opacity="0"></use></g></g><g><use xlink:href="#b1gVjMlUUk" opacity="1" fill="#ffffff" fill-opacity="1"></use><g><use xlink:href="#b1gVjMlUUk" opacity="1" fill-opacity="0" stroke="#000000" stroke-width="1" stroke-opacity="0"></use></g></g><g><use xlink:href="#a2cWlyKy8k" opacity="1" fill="#52c4ac" fill-opacity="1"></use><g><use xlink:href="#a2cWlyKy8k" opacity="1" fill-opacity="0" stroke="#000000" stroke-width="1" stroke-opacity="0"></use></g></g><g><use xlink:href="#atUtnvRUS" opacity="1" fill="#52c4ac" fill-opacity="1"></use><g><use xlink:href="#atUtnvRUS" opacity="1" fill-opacity="0" stroke="#000000" stroke-width="1" stroke-opacity="0"></use></g></g></g></g></svg>